<svg xmlns="http://www.w3.org/2000/svg" xmlns:xlink="http://www.w3.org/1999/xlink" viewBox="0 0 48 48"><defs><style>.cls-1{fill:url(#linear-gradient);}.cls-2{fill:url(#linear-gradient-2);}.cls-3{fill:#ef9d3a;}.cls-4{fill:url(#linear-gradient-3);}.cls-5{fill:url(#linear-gradient-4);}.cls-6{fill:url(#linear-gradient-5);}.cls-7{fill:url(#linear-gradient-6);}.cls-8{fill:url(#linear-gradient-7);}.cls-9{fill:url(#linear-gradient-8);}.cls-10{fill:url(#linear-gradient-9);}.cls-11{fill:url(#linear-gradient-10);}.cls-12{fill:url(#linear-gradient-11);}.cls-13{fill:url(#linear-gradient-12);}.cls-14{fill:url(#linear-gradient-13);}.cls-15{fill:url(#linear-gradient-14);}.cls-16{fill:url(#linear-gradient-15);}.cls-17{fill:url(#linear-gradient-16);}.cls-18{fill:url(#linear-gradient-17);}.cls-19{fill:url(#linear-gradient-18);}.cls-20{fill:url(#linear-gradient-19);}</style><linearGradient id="linear-gradient" x1="13.456" y1="14.569" x2="33.206" y2="32.235" gradientUnits="userSpaceOnUse"><stop offset="0" stop-color="#ffca4f"/><stop offset="1" stop-color="#f7ae30"/></linearGradient><linearGradient id="linear-gradient-2" x1="14.763" y1="15.284" x2="22.218" y2="22.319" gradientUnits="userSpaceOnUse"><stop offset="0" stop-color="#ffd980"/><stop offset="1" stop-color="#ffca4f" stop-opacity="0"/></linearGradient><linearGradient id="linear-gradient-3" x1="24" y1="3.042" x2="24" y2="7.917" xlink:href="#linear-gradient"/><linearGradient id="linear-gradient-4" x1="24" y1="44.906" x2="24" y2="39.969" xlink:href="#linear-gradient"/><linearGradient id="linear-gradient-5" x1="9.236" y1="9.298" x2="12.674" y2="12.61" xlink:href="#linear-gradient"/><linearGradient id="linear-gradient-6" x1="38.75" y1="38.792" x2="35.417" y2="35.376" xlink:href="#linear-gradient"/><linearGradient id="linear-gradient-7" x1="3.063" y1="24" x2="7.848" y2="24" xlink:href="#linear-gradient"/><linearGradient id="linear-gradient-8" x1="45.063" y1="24" x2="40.063" y2="24" xlink:href="#linear-gradient"/><linearGradient id="linear-gradient-9" x1="9.214" y1="38.776" x2="12.651" y2="35.359" xlink:href="#linear-gradient"/><linearGradient id="linear-gradient-10" x1="38.789" y1="9.227" x2="35.414" y2="12.571" xlink:href="#linear-gradient"/><linearGradient id="linear-gradient-11" x1="15.15" y1="2.815" x2="17.9" y2="9.096" xlink:href="#linear-gradient"/><linearGradient id="linear-gradient-12" x1="32.737" y1="45.172" x2="30.196" y2="38.88" xlink:href="#linear-gradient"/><linearGradient id="linear-gradient-13" x1="2.844" y1="15.178" x2="9.125" y2="17.897" xlink:href="#linear-gradient"/><linearGradient id="linear-gradient-14" x1="45.191" y1="32.862" x2="38.857" y2="30.07" xlink:href="#linear-gradient"/><linearGradient id="linear-gradient-15" x1="2.896" y1="32.788" x2="9.083" y2="30.132" xlink:href="#linear-gradient"/><linearGradient id="linear-gradient-16" x1="45.298" y1="15.275" x2="38.798" y2="17.775" xlink:href="#linear-gradient"/><linearGradient id="linear-gradient-17" x1="15.246" y1="45.268" x2="17.84" y2="38.737" xlink:href="#linear-gradient"/><linearGradient id="linear-gradient-18" x1="32.795" y1="2.849" x2="30.138" y2="9.099" xlink:href="#linear-gradient"/><linearGradient id="linear-gradient-19" x1="24.699" y1="24.644" x2="33.283" y2="32.436" gradientUnits="userSpaceOnUse"><stop offset="0" stop-color="#ffca4f" stop-opacity="0"/><stop offset="1" stop-color="#f4901f"/></linearGradient></defs><title>Weather Graadient</title><g id="Sunny"><circle class="cls-1" cx="24" cy="24" r="12"/><path class="cls-2" d="M24,35A11,11,0,1,1,35,24,11.012,11.012,0,0,1,24,35Z"/><path class="cls-3" d="M24,45a1,1,0,0,1-1-1V41a1,1,0,0,1,2,0v3A1,1,0,0,1,24,45Z"/><path class="cls-4" d="M24,8a1,1,0,0,1-1-1V4a1,1,0,0,1,2,0V7A1,1,0,0,1,24,8Z"/><path class="cls-5" d="M24,45a1,1,0,0,1-1-1V41a1,1,0,0,1,2,0v3A1,1,0,0,1,24,45Z"/><path class="cls-6" d="M11.979,12.979a1,1,0,0,1-.707-.293L9.151,10.565a1,1,0,1,1,1.414-1.414l2.121,2.121a1,1,0,0,1-.707,1.707Z"/><path class="cls-7" d="M38.142,39.142a1,1,0,0,1-.707-.293l-2.121-2.121a1,1,0,0,1,1.414-1.414l2.121,2.121a1,1,0,0,1-.707,1.707Z"/><path class="cls-8" d="M7,25H4a1,1,0,0,1,0-2H7a1,1,0,0,1,0,2Z"/><path class="cls-9" d="M44,25H41a1,1,0,0,1,0-2h3a1,1,0,0,1,0,2Z"/><path class="cls-10" d="M9.858,39.142a1,1,0,0,1-.707-1.707l2.121-2.121a1,1,0,0,1,1.414,1.414l-2.121,2.121A1,1,0,0,1,9.858,39.142Z"/><path class="cls-11" d="M36.021,12.979a1,1,0,0,1-.707-1.707l2.121-2.121a1,1,0,1,1,1.414,1.414l-2.121,2.121A1,1,0,0,1,36.021,12.979Z"/><path class="cls-12" d="M17.495,9.294a1,1,0,0,1-.924-.618L14.657,4.058A1,1,0,0,1,16.5,3.292l1.913,4.619a1,1,0,0,1-.923,1.383Z"/><path class="cls-13" d="M32.419,45.326a1,1,0,0,1-.924-.618l-1.913-4.619a1,1,0,1,1,1.848-.766l1.913,4.619a1,1,0,0,1-.923,1.383Z"/><path class="cls-14" d="M8.293,18.495a1,1,0,0,1-.382-.077L3.292,16.5a1,1,0,0,1,.766-1.848L8.677,16.57a1,1,0,0,1-.383,1.924Z"/><path class="cls-15" d="M44.325,33.419a1,1,0,0,1-.382-.077L39.323,31.43a1,1,0,1,1,.766-1.848L44.708,31.5a1,1,0,0,1-.383,1.924Z"/><path class="cls-16" d="M3.675,33.419A1,1,0,0,1,3.292,31.5l4.619-1.913a1,1,0,0,1,.766,1.848L4.058,33.343A1,1,0,0,1,3.675,33.419Z"/><path class="cls-17" d="M39.707,18.495a1,1,0,0,1-.383-1.924l4.619-1.913a1,1,0,1,1,.766,1.848l-4.619,1.913A1,1,0,0,1,39.707,18.495Z"/><path class="cls-18" d="M15.581,45.326a1,1,0,0,1-.923-1.383l1.913-4.619a1,1,0,1,1,1.848.766L16.5,44.708A1,1,0,0,1,15.581,45.326Z"/><path class="cls-19" d="M30.505,9.294a1,1,0,0,1-.923-1.383L31.5,3.292a1,1,0,0,1,1.848.766L31.43,8.677A1,1,0,0,1,30.505,9.294Z"/><path class="cls-20" d="M15.515,32.485A12,12,0,0,0,32.485,15.515Z"/></g></svg>