<svg xmlns="http://www.w3.org/2000/svg" xmlns:xlink="http://www.w3.org/1999/xlink" viewBox="0 0 48 48"><defs><style>.cls-1{fill:url(#linear-gradient);}.cls-2{fill:url(#linear-gradient-2);}.cls-3{fill:url(#linear-gradient-3);}.cls-4{fill:url(#linear-gradient-4);}</style><linearGradient id="linear-gradient" x1="24" y1="30.417" x2="24" y2="36.992" gradientUnits="userSpaceOnUse"><stop offset="0" stop-color="#eaecf7"/><stop offset="1" stop-color="#cdd3f1"/></linearGradient><linearGradient id="linear-gradient-2" x1="24" y1="39.083" x2="24" y2="46.087" xlink:href="#linear-gradient"/><linearGradient id="linear-gradient-3" x1="24" y1="2.667" x2="24" y2="27.167" xlink:href="#linear-gradient"/><linearGradient id="linear-gradient-4" x1="24" y1="18.256" x2="24" y2="31.006" gradientUnits="userSpaceOnUse"><stop offset="0" stop-color="#e2e5f4" stop-opacity="0"/><stop offset="1" stop-color="#9aa6e2"/></linearGradient></defs><title>Weather Graadient</title><g id="Foggy"><path class="cls-1" d="M46,37a14.216,14.216,0,0,1-7.814-2.122A12.36,12.36,0,0,0,31.33,33a12.36,12.36,0,0,0-6.856,1.878A14.216,14.216,0,0,1,16.66,37a14.2,14.2,0,0,1-7.809-2.122A12.346,12.346,0,0,0,2,33a1,1,0,0,1,0-2,14.2,14.2,0,0,1,7.809,2.122A12.346,12.346,0,0,0,16.66,35a12.36,12.36,0,0,0,6.856-1.878A14.216,14.216,0,0,1,31.33,31a14.216,14.216,0,0,1,7.814,2.122A12.36,12.36,0,0,0,46,35a1,1,0,0,1,0,2Z"/><path class="cls-2" d="M46,46a14.216,14.216,0,0,1-7.814-2.122A12.36,12.36,0,0,0,31.33,42a12.36,12.36,0,0,0-6.856,1.878A14.216,14.216,0,0,1,16.66,46a14.2,14.2,0,0,1-7.809-2.122A12.346,12.346,0,0,0,2,42a1,1,0,0,1,0-2,14.2,14.2,0,0,1,7.809,2.122A12.346,12.346,0,0,0,16.66,44a12.36,12.36,0,0,0,6.856-1.878A14.216,14.216,0,0,1,31.33,40a14.216,14.216,0,0,1,7.814,2.122A12.36,12.36,0,0,0,46,44a1,1,0,0,1,0,2Z"/><path class="cls-3" d="M38,12c-.121,0-.238.013-.357.018a12.981,12.981,0,0,0-23.7-3.826A10,10,0,1,0,12,28H38a8,8,0,0,0,0-16Z"/><path class="cls-4" d="M2,18A10,10,0,0,0,12,28H38a7.972,7.972,0,0,0,7.738-10Z"/></g></svg>