<?xml version="1.0" encoding="UTF-8"?>
<svg id="Layer_1" xmlns="http://www.w3.org/2000/svg" xmlns:xlink="http://www.w3.org/1999/xlink" version="1.1" viewBox="0 0 48 48">
  <!-- Generator: Adobe Illustrator 29.0.1, SVG Export Plug-In . SVG Version: 2.1.0 Build 192)  -->
  <defs>
    <style>
      .st0 {
        fill: url(#linear-gradient2);
      }

      .st1 {
        fill: url(#linear-gradient1);
      }

      .st2 {
        fill: url(#linear-gradient3);
      }

      .st3 {
        fill: url(#linear-gradient6);
      }

      .st4 {
        fill: url(#linear-gradient7);
      }

      .st5 {
        fill: url(#linear-gradient5);
      }

      .st6 {
        fill: url(#linear-gradient4);
      }

      .st7 {
        fill: url(#linear-gradient);
      }
    </style>
    <linearGradient id="linear-gradient" x1="24.8" y1="3.3" x2="24.8" y2="28.6" gradientUnits="userSpaceOnUse">
      <stop offset="0" stop-color="#eaecf7"/>
      <stop offset="1" stop-color="#cdd3f1"/>
    </linearGradient>
    <linearGradient id="linear-gradient1" x1="24.8" y1="18.5" x2="24.8" y2="30.2" gradientUnits="userSpaceOnUse">
      <stop offset="0" stop-color="#e2e5f4" stop-opacity="0"/>
      <stop offset="1" stop-color="#9aa6e2"/>
    </linearGradient>
    <linearGradient id="linear-gradient2" x1="24.8" y1="32.6" x2="24.8" y2="40.4" xlink:href="#linear-gradient"/>
    <linearGradient id="linear-gradient3" x1="13.2" y1="32.6" x2="13.2" y2="40.4" xlink:href="#linear-gradient"/>
    <linearGradient id="linear-gradient4" x1="36.4" y1="32.6" x2="36.4" y2="40.4" xlink:href="#linear-gradient"/>
    <linearGradient id="linear-gradient5" x1="13.2" y1="36.5" x2="13.2" y2="41.1" xlink:href="#linear-gradient1"/>
    <linearGradient id="linear-gradient6" x1="24.8" y1="36.5" x2="24.8" y2="41.2" xlink:href="#linear-gradient1"/>
    <linearGradient id="linear-gradient7" x1="36.4" y1="36.5" x2="36.4" y2="41.2" xlink:href="#linear-gradient1"/>
  </defs>
  <path class="st7" d="M38.8,12.5c-.1,0-.2,0-.4,0-1.3-5.7-6.5-10-12.6-10s-8.8,2.5-11.1,6.2c-.6-.1-1.3-.2-1.9-.2-5.5,0-10,4.5-10,10s4.5,10,10,10h26c4.4,0,8-3.6,8-8s-3.6-8-8-8Z"/>
  <path class="st1" d="M3,16.5c-.1.6-.2,1.3-.2,2,0,5.5,4.5,10,10,10h26c4.4,0,8-3.6,8-8s-.4-2.8-1.1-4H3Z"/>
  <path class="st0" d="M28.3,34.5c-.3-.5-.9-.6-1.4-.4l-1.1.6v-1.3c0-.6-.4-1-1-1s-1,.4-1,1v1.3l-1.1-.6c-.5-.3-1.1-.1-1.4.4-.3.5-.1,1.1.4,1.4l1.1.6-1.1.6c-.5.3-.6.9-.4,1.4.2.3.5.5.9.5s.3,0,.5-.1l1.1-.6v1.3c0,.6.4,1,1,1s1-.4,1-1v-1.3l1.1.6c.2,0,.3.1.5.1.3,0,.7-.2.9-.5.3-.5.1-1.1-.4-1.4l-1.1-.6,1.1-.6c.5-.3.6-.9.4-1.4Z"/>
  <path class="st2" d="M16.7,34.5c-.3-.5-.9-.6-1.4-.4l-1.1.6v-1.3c0-.6-.4-1-1-1s-1,.4-1,1v1.3l-1.1-.6c-.5-.3-1.1-.1-1.4.4-.3.5-.1,1.1.4,1.4l1.1.6-1.1.6c-.5.3-.6.9-.4,1.4.2.3.5.5.9.5s.3,0,.5-.1l1.1-.6v1.3c0,.6.4,1,1,1s1-.4,1-1v-1.3l1.1.6c.2,0,.3.1.5.1.3,0,.7-.2.9-.5.3-.5.1-1.1-.4-1.4l-1.1-.6,1.1-.6c.5-.3.6-.9.4-1.4Z"/>
  <path class="st6" d="M39.5,37.1l-1.1-.6,1.1-.6c.5-.3.6-.9.4-1.4-.3-.5-.9-.6-1.4-.4l-1.1.6v-1.3c0-.6-.4-1-1-1s-1,.4-1,1v1.3l-1.1-.6c-.5-.3-1.1-.1-1.4.4-.3.5-.1,1.1.4,1.4l1.1.6-1.1.6c-.5.3-.6.9-.4,1.4.2.3.5.5.9.5s.3,0,.5-.1l1.1-.6v1.3c0,.6.4,1,1,1s1-.4,1-1v-1.3l1.1.6c.2,0,.3.1.5.1.3,0,.7-.2.9-.5.3-.5.1-1.1-.4-1.4Z"/>
  <path class="st5" d="M16.3,37.1l-1.1-.6h-4l-1.1.6c-.5.3-.6.9-.4,1.4.2.3.5.5.9.5s.3,0,.5-.1l1.1-.6v1.3c0,.6.4,1,1,1s1-.4,1-1v-1.3l1.1.6c.2,0,.3.1.5.1.3,0,.7-.2.9-.5.3-.5.1-1.1-.4-1.4Z"/>
  <path class="st3" d="M27.9,37.1l-1.1-.6h-4l-1.1.6c-.5.3-.6.9-.4,1.4.2.3.5.5.9.5s.3,0,.5-.1l1.1-.6v1.3c0,.6.4,1,1,1s1-.4,1-1v-1.3l1.1.6c.2,0,.3.1.5.1.3,0,.7-.2.9-.5.3-.5.1-1.1-.4-1.4Z"/>
  <path class="st4" d="M39.5,37.1l-1.1-.6h-4l-1.1.6c-.5.3-.6.9-.4,1.4.2.3.5.5.9.5s.3,0,.5-.1l1.1-.6v1.3c0,.6.4,1,1,1s1-.4,1-1v-1.3l1.1.6c.2,0,.3.1.5.1.3,0,.7-.2.9-.5.3-.5.1-1.1-.4-1.4Z"/>
</svg>