<svg xmlns="http://www.w3.org/2000/svg" xmlns:xlink="http://www.w3.org/1999/xlink" viewBox="0 0 48 48"><defs><style>.cls-1{fill:url(#linear-gradient);}.cls-2{fill:url(#linear-gradient-2);}.cls-3{fill:url(#linear-gradient-3);}.cls-4{fill:url(#linear-gradient-4);}.cls-5{fill:url(#linear-gradient-5);}.cls-6{fill:url(#linear-gradient-6);}.cls-7{fill:url(#linear-gradient-7);}.cls-8{fill:url(#linear-gradient-8);}.cls-9{fill:url(#linear-gradient-9);}</style><linearGradient id="linear-gradient" x1="24" y1="2.75" x2="24" y2="28.13" gradientUnits="userSpaceOnUse"><stop offset="0" stop-color="#eaecf7"/><stop offset="1" stop-color="#cdd3f1"/></linearGradient><linearGradient id="linear-gradient-2" x1="24" y1="18.013" x2="24" y2="29.727" gradientUnits="userSpaceOnUse"><stop offset="0" stop-color="#e2e5f4" stop-opacity="0"/><stop offset="1" stop-color="#9aa6e2"/></linearGradient><linearGradient id="linear-gradient-3" x1="37.587" y1="35.929" x2="40.754" y2="29.367" xlink:href="#linear-gradient"/><linearGradient id="linear-gradient-4" x1="27.539" y1="35.905" x2="30.83" y2="29.363" xlink:href="#linear-gradient"/><linearGradient id="linear-gradient-5" x1="17.564" y1="35.845" x2="20.846" y2="29.345" xlink:href="#linear-gradient"/><linearGradient id="linear-gradient-6" x1="7.597" y1="35.846" x2="10.879" y2="29.19" xlink:href="#linear-gradient"/><linearGradient id="linear-gradient-7" x1="10.525" y1="45.857" x2="13.963" y2="39.2" xlink:href="#linear-gradient"/><linearGradient id="linear-gradient-8" x1="20.637" y1="45.849" x2="23.793" y2="39.256" xlink:href="#linear-gradient"/><linearGradient id="linear-gradient-9" x1="30.572" y1="45.802" x2="33.854" y2="39.364" xlink:href="#linear-gradient"/></defs><title>Weather Graadient</title><g id="Rain"><path class="cls-1" d="M38,12c-.121,0-.238.013-.357.018a12.981,12.981,0,0,0-23.7-3.826A10,10,0,1,0,12,28H38a8,8,0,0,0,0-16Z"/><path class="cls-2" d="M2.2,16A10.005,10.005,0,0,0,12,28H38a7.99,7.99,0,0,0,6.921-12Z"/><path class="cls-3" d="M38,36a1,1,0,0,1-.894-1.447l2-4a1,1,0,0,1,1.789.895l-2,4A1,1,0,0,1,38,36Z"/><path class="cls-4" d="M28,36a1,1,0,0,1-.894-1.447l2-4a1,1,0,0,1,1.789.895l-2,4A1,1,0,0,1,28,36Z"/><path class="cls-5" d="M18,36a1,1,0,0,1-.894-1.447l2-4a1,1,0,0,1,1.789.895l-2,4A1,1,0,0,1,18,36Z"/><path class="cls-6" d="M8,36a1,1,0,0,1-.894-1.447l2-4a1,1,0,0,1,1.789.895l-2,4A1,1,0,0,1,8,36Z"/><path class="cls-7" d="M11,46a1,1,0,0,1-.894-1.447l2-4a1,1,0,0,1,1.789.895l-2,4A1,1,0,0,1,11,46Z"/><path class="cls-8" d="M21,46a1,1,0,0,1-.894-1.447l2-4a1,1,0,0,1,1.789.895l-2,4A1,1,0,0,1,21,46Z"/><path class="cls-9" d="M31,46a1,1,0,0,1-.894-1.447l2-4a1,1,0,0,1,1.789.895l-2,4A1,1,0,0,1,31,46Z"/></g></svg>