<svg xmlns="http://www.w3.org/2000/svg" xmlns:xlink="http://www.w3.org/1999/xlink" viewBox="0 0 48 48"><defs><style>.cls-1{fill:url(#linear-gradient);}.cls-2{fill:url(#linear-gradient-2);}.cls-3{fill:url(#linear-gradient-3);}.cls-4{fill:url(#linear-gradient-4);}.cls-5{fill:url(#linear-gradient-5);}.cls-6{fill:url(#linear-gradient-6);}.cls-7{fill:url(#linear-gradient-7);}.cls-8{fill:url(#linear-gradient-8);}.cls-9{fill:url(#linear-gradient-9);}.cls-10{fill:url(#linear-gradient-10);}.cls-11{fill:url(#linear-gradient-11);}.cls-12{fill:url(#linear-gradient-12);}</style><linearGradient id="linear-gradient" x1="24" y1="2.667" x2="24" y2="27.167" gradientUnits="userSpaceOnUse"><stop offset="0" stop-color="#eaecf7"/><stop offset="1" stop-color="#cdd3f1"/></linearGradient><linearGradient id="linear-gradient-2" x1="24" y1="18.256" x2="24" y2="31.006" gradientUnits="userSpaceOnUse"><stop offset="0" stop-color="#e2e5f4" stop-opacity="0"/><stop offset="1" stop-color="#9aa6e2"/></linearGradient><linearGradient id="linear-gradient-3" x1="10.329" y1="32.382" x2="13.641" y2="35.59" xlink:href="#linear-gradient"/><linearGradient id="linear-gradient-4" x1="12.076" y1="34.07" x2="13.982" y2="35.788" xlink:href="#linear-gradient-2"/><linearGradient id="linear-gradient-5" x1="22.329" y1="32.382" x2="25.641" y2="35.59" xlink:href="#linear-gradient"/><linearGradient id="linear-gradient-6" x1="24.076" y1="34.07" x2="25.982" y2="35.788" xlink:href="#linear-gradient-2"/><linearGradient id="linear-gradient-7" x1="34.329" y1="32.382" x2="37.641" y2="35.59" xlink:href="#linear-gradient"/><linearGradient id="linear-gradient-8" x1="36.076" y1="34.07" x2="37.982" y2="35.788" xlink:href="#linear-gradient-2"/><linearGradient id="linear-gradient-9" x1="28.329" y1="41.382" x2="31.641" y2="44.59" xlink:href="#linear-gradient"/><linearGradient id="linear-gradient-10" x1="30.076" y1="43.07" x2="31.982" y2="44.788" xlink:href="#linear-gradient-2"/><linearGradient id="linear-gradient-11" x1="16.329" y1="41.382" x2="19.641" y2="44.59" xlink:href="#linear-gradient"/><linearGradient id="linear-gradient-12" x1="18.076" y1="43.07" x2="19.982" y2="44.788" xlink:href="#linear-gradient-2"/></defs><title>Weather Graadient</title><g id="Sleet"><path class="cls-1" d="M38,12c-.121,0-.238.013-.357.018a12.981,12.981,0,0,0-23.7-3.826A10,10,0,1,0,12,28H38a8,8,0,0,0,0-16Z"/><path class="cls-2" d="M2,18A10,10,0,0,0,12,28H38a7.972,7.972,0,0,0,7.738-10Z"/><circle class="cls-3" cx="12" cy="34" r="2"/><path class="cls-4" d="M10.586,35.414a2,2,0,1,0,2.828-2.828Z"/><circle class="cls-5" cx="24" cy="34" r="2"/><path class="cls-6" d="M22.586,35.414a2,2,0,1,0,2.828-2.828Z"/><circle class="cls-7" cx="36" cy="34" r="2"/><path class="cls-8" d="M34.586,35.414a2,2,0,1,0,2.828-2.828Z"/><circle class="cls-9" cx="30" cy="43" r="2"/><path class="cls-10" d="M28.586,44.414a2,2,0,1,0,2.828-2.828Z"/><circle class="cls-11" cx="18" cy="43" r="2"/><path class="cls-12" d="M16.586,44.414a2,2,0,1,0,2.828-2.828Z"/></g></svg>