<svg xmlns="http://www.w3.org/2000/svg" xmlns:xlink="http://www.w3.org/1999/xlink" viewBox="0 0 48 48"><defs><style>.cls-1{fill:url(#linear-gradient);}.cls-2{fill:url(#linear-gradient-2);}.cls-3{fill:url(#linear-gradient-3);}.cls-4{fill:url(#linear-gradient-4);}.cls-5{fill:url(#linear-gradient-5);}.cls-6{fill:url(#linear-gradient-6);}.cls-7{fill:url(#linear-gradient-7);}.cls-8{fill:url(#linear-gradient-8);}.cls-9{fill:url(#linear-gradient-9);}.cls-10{fill:url(#linear-gradient-10);}</style><linearGradient id="linear-gradient" x1="19.792" y1="11.069" x2="34.958" y2="25.652" gradientUnits="userSpaceOnUse"><stop offset="0" stop-color="#ffca4f"/><stop offset="1" stop-color="#f7ae30"/></linearGradient><linearGradient id="linear-gradient-2" x1="19.534" y1="10.425" x2="25.615" y2="16.595" gradientUnits="userSpaceOnUse"><stop offset="0" stop-color="#ffd980"/><stop offset="1" stop-color="#ffca4f" stop-opacity="0"/></linearGradient><linearGradient id="linear-gradient-3" x1="27.566" y1="18.542" x2="35.698" y2="26.361" gradientUnits="userSpaceOnUse"><stop offset="0" stop-color="#ffca4f" stop-opacity="0"/><stop offset="1" stop-color="#f4901f"/></linearGradient><linearGradient id="linear-gradient-4" x1="24" y1="20.75" x2="24" y2="46.13" gradientUnits="userSpaceOnUse"><stop offset="0" stop-color="#eaecf7"/><stop offset="1" stop-color="#cdd3f1"/></linearGradient><linearGradient id="linear-gradient-5" x1="27" y1="1.167" x2="27" y2="4.857" xlink:href="#linear-gradient"/><linearGradient id="linear-gradient-6" x1="9.874" y1="17.978" x2="13.874" y2="18.02" xlink:href="#linear-gradient"/><linearGradient id="linear-gradient-7" x1="43.833" y1="18" x2="40.082" y2="18" xlink:href="#linear-gradient"/><linearGradient id="linear-gradient-8" x1="38.813" y1="6.188" x2="36.188" y2="8.813" xlink:href="#linear-gradient"/><linearGradient id="linear-gradient-9" x1="15.084" y1="6.124" x2="17.792" y2="8.749" xlink:href="#linear-gradient"/><linearGradient id="linear-gradient-10" x1="24" y1="36.013" x2="24" y2="47.727" gradientUnits="userSpaceOnUse"><stop offset="0" stop-color="#e2e5f4" stop-opacity="0"/><stop offset="1" stop-color="#9aa6e2"/></linearGradient></defs><title>Weather Graadient</title><g id="Cloudy_day" data-name="Cloudy day"><circle class="cls-1" cx="27" cy="18" r="10"/><path class="cls-2" d="M27,27a9,9,0,1,1,9-9A9.01,9.01,0,0,1,27,27Z"/><path class="cls-3" d="M33.93,10.8,19.573,24.679A9.991,9.991,0,1,0,33.93,10.8Z"/><path class="cls-4" d="M38,30c-.121,0-.238.013-.357.018a12.981,12.981,0,0,0-23.7-3.826A10,10,0,1,0,12,46H38a8,8,0,0,0,0-16Z"/><path class="cls-5" d="M27,5a1,1,0,0,1-1-1V2a1,1,0,0,1,2,0V4A1,1,0,0,1,27,5Z"/><path class="cls-6" d="M13,19H11a1,1,0,0,1,0-2h2a1,1,0,0,1,0,2Z"/><path class="cls-7" d="M43,19H41a1,1,0,0,1,0-2h2a1,1,0,0,1,0,2Z"/><path class="cls-8" d="M36.9,9.1a1,1,0,0,1-.707-1.707l1.414-1.414a1,1,0,0,1,1.414,1.414L37.606,8.808A1,1,0,0,1,36.9,9.1Z"/><path class="cls-9" d="M17.1,9.1a1,1,0,0,1-.707-.293L14.979,7.394a1,1,0,1,1,1.414-1.414l1.414,1.414A1,1,0,0,1,17.1,9.1Z"/><path class="cls-10" d="M2.2,34A10.005,10.005,0,0,0,12,46H38a7.99,7.99,0,0,0,6.921-12Z"/></g></svg>