<svg xmlns="http://www.w3.org/2000/svg" xmlns:xlink="http://www.w3.org/1999/xlink" viewBox="0 0 48 48"><defs><style>.cls-1{fill:url(#linear-gradient);}.cls-2{fill:url(#linear-gradient-2);}.cls-3{fill:url(#linear-gradient-3);}.cls-4{fill:url(#linear-gradient-4);}</style><linearGradient id="linear-gradient" x1="25.886" y1="5.736" x2="38.22" y2="28.32" gradientUnits="userSpaceOnUse"><stop offset="0" stop-color="#ffca4f"/><stop offset="1" stop-color="#f7ae30"/></linearGradient><linearGradient id="linear-gradient-2" x1="32.136" y1="20.52" x2="45.324" y2="31.583" gradientUnits="userSpaceOnUse"><stop offset="0" stop-color="#ffca4f" stop-opacity="0"/><stop offset="1" stop-color="#f4901f"/></linearGradient><linearGradient id="linear-gradient-3" x1="22.5" y1="20.5" x2="22.5" y2="43.589" gradientUnits="userSpaceOnUse"><stop offset="0" stop-color="#eaecf7"/><stop offset="1" stop-color="#cdd3f1"/></linearGradient><linearGradient id="linear-gradient-4" x1="22.5" y1="34.3" x2="22.5" y2="46.251" gradientUnits="userSpaceOnUse"><stop offset="0" stop-color="#e2e5f4" stop-opacity="0"/><stop offset="1" stop-color="#9aa6e2"/></linearGradient></defs><title>Weather Graadient</title><g id="Cloudy_Night" data-name="Cloudy Night"><path class="cls-1" d="M41.86,23a10.491,10.491,0,0,1-6.2-18.96c-.265-.017-.529-.04-.8-.04A12.5,12.5,0,1,0,46,22.149,10.461,10.461,0,0,1,41.86,23Z"/><path class="cls-2" d="M41.86,23a10.5,10.5,0,0,1-9.684-6.439c-2.546,2.4-5.156,4.884-7.521,7.142A12.481,12.481,0,0,0,46,22.149,10.461,10.461,0,0,1,41.86,23Z"/><path class="cls-3" d="M35.545,29.091c-.112,0-.222.012-.333.017a12.1,12.1,0,0,0-22.086-3.565A9.317,9.317,0,1,0,11.318,44H35.545a7.455,7.455,0,0,0,0-14.909Z"/><path class="cls-4" d="M2.034,34c-.016.226-.034.452-.034.682A9.318,9.318,0,0,0,11.318,44H35.545a7.437,7.437,0,0,0,7-10Z"/></g></svg>