<?xml version="1.0" encoding="UTF-8"?>
<svg id="Layer_2" xmlns="http://www.w3.org/2000/svg" xmlns:xlink="http://www.w3.org/1999/xlink" version="1.1" viewBox="0 0 48 48">
  <!-- Generator: Adobe Illustrator 29.0.1, SVG Export Plug-In . SVG Version: 2.1.0 Build 192)  -->
  <defs>
    <style>
      .st0 {
        fill: url(#linear-gradient2);
      }

      .st1 {
        fill: url(#linear-gradient1);
      }

      .st2 {
        fill: url(#linear-gradient3);
      }

      .st3 {
        fill: url(#linear-gradient5);
      }

      .st4 {
        fill: url(#linear-gradient4);
      }

      .st5 {
        fill: url(#linear-gradient);
      }
    </style>
    <linearGradient id="linear-gradient" x1="26.8" y1="4" x2="45" y2="26.2" gradientTransform="translate(-2.3 8.2) rotate(-12.7)" gradientUnits="userSpaceOnUse">
      <stop offset="0" stop-color="#ffca4f"/>
      <stop offset="1" stop-color="#f7ae30"/>
    </linearGradient>
    <linearGradient id="linear-gradient1" x1="33.6" y1="19.7" x2="44.8" y2="26.9" gradientTransform="translate(-2.3 8.2) rotate(-12.7)" gradientUnits="userSpaceOnUse">
      <stop offset="0" stop-color="#ffca4f" stop-opacity="0"/>
      <stop offset="1" stop-color="#f4901f"/>
    </linearGradient>
    <linearGradient id="linear-gradient2" x1="24" y1="33" x2="24" y2="37.3" gradientUnits="userSpaceOnUse">
      <stop offset="0" stop-color="#eaecf7"/>
      <stop offset="1" stop-color="#cdd3f1"/>
    </linearGradient>
    <linearGradient id="linear-gradient3" x1="24" y1="38.7" x2="24" y2="43.3" xlink:href="#linear-gradient2"/>
    <linearGradient id="linear-gradient4" y1="14.7" x2="24" y2="30.9" xlink:href="#linear-gradient2"/>
    <linearGradient id="linear-gradient5" x1="24" y1="25" x2="24" y2="33.4" gradientUnits="userSpaceOnUse">
      <stop offset="0" stop-color="#e2e5f4" stop-opacity="0"/>
      <stop offset="1" stop-color="#9aa6e2"/>
    </linearGradient>
  </defs>
  <g>
    <path class="st5" d="M34,3.1c1.2-.3,2.5-.3,3.7-.2-4.4,1.6-7.1,6.2-6,10.9,1.1,5.1,6.2,8.2,11.2,7.1s3.2-1.2,4.3-2.3c-1.4,3.4-4.3,6-8.1,6.9-6.2,1.4-12.3-2.5-13.7-8.7-1.4-6.2,2.5-12.3,8.7-13.7Z"/>
    <path class="st1" d="M33.5,17.7l-3.7,5.9c2.6,1.9,5.9,2.7,9.3,1.9s6.7-3.5,8.1-6.9c-1.2,1.1-2.6,1.9-4.3,2.3-3.6.8-7.1-.6-9.3-3.2Z"/>
  </g>
  <g>
    <path class="st0" d="M38.5,37.4c-2.6,0-3.9-.7-5.2-1.4-1.2-.6-2.3-1.2-4.5-1.2s-3.4.6-4.5,1.2c-1.3.7-2.6,1.4-5.2,1.4s-3.9-.7-5.2-1.4c-1.2-.6-2.3-1.2-4.5-1.2s-.7-.3-.7-.7.3-.7.7-.7c2.6,0,3.9.7,5.2,1.4,1.2.6,2.3,1.2,4.5,1.2s3.4-.6,4.5-1.2c1.3-.7,2.6-1.4,5.2-1.4s3.9.7,5.2,1.4c1.2.6,2.3,1.2,4.5,1.2s.7.3.7.7-.3.7-.7.7Z"/>
    <path class="st2" d="M38.5,43.3c-2.6,0-3.9-.7-5.2-1.4-1.2-.6-2.3-1.2-4.5-1.2s-3.4.6-4.5,1.2c-1.3.7-2.6,1.4-5.2,1.4s-3.9-.7-5.2-1.4c-1.2-.6-2.3-1.2-4.5-1.2s-.7-.3-.7-.7.3-.7.7-.7c2.6,0,3.9.7,5.2,1.4,1.2.6,2.3,1.2,4.5,1.2s3.4-.6,4.5-1.2c1.3-.7,2.6-1.4,5.2-1.4s3.9.7,5.2,1.4c1.2.6,2.3,1.2,4.5,1.2s.7.3.7.7-.3.7-.7.7Z"/>
    <path class="st4" d="M33.2,20.9c0,0-.2,0-.2,0-.9-3.8-4.3-6.6-8.3-6.6s-5.8,1.6-7.3,4.1c-.4,0-.8-.1-1.3-.1-3.6,0-6.6,3-6.6,6.6s3,6.6,6.6,6.6h17.1c2.9,0,5.3-2.4,5.3-5.3s-2.4-5.3-5.3-5.3Z"/>
    <path class="st3" d="M9.5,24.8c0,3.6,3,6.6,6.6,6.6h17.1c2.9,0,5.3-2.4,5.3-5.3s0-.9-.2-1.3H9.5Z"/>
  </g>
</svg>