<svg xmlns="http://www.w3.org/2000/svg" xmlns:xlink="http://www.w3.org/1999/xlink" viewBox="0 0 48 48"><defs><style>.cls-1{fill:url(#linear-gradient);}.cls-2{fill:url(#linear-gradient-2);}.cls-3{fill:url(#linear-gradient-3);}.cls-4{fill:url(#linear-gradient-4);}.cls-5{fill:url(#linear-gradient-5);}.cls-6{fill:url(#linear-gradient-6);}.cls-7{fill:url(#linear-gradient-7);}.cls-8{fill:url(#linear-gradient-8);}</style><linearGradient id="linear-gradient" x1="27.369" y1="3.457" x2="40.202" y2="23.291" gradientUnits="userSpaceOnUse"><stop offset="0" stop-color="#ffca4f"/><stop offset="1" stop-color="#f7ae30"/></linearGradient><linearGradient id="linear-gradient-2" x1="32.73" y1="15.166" x2="42.48" y2="24.333" gradientUnits="userSpaceOnUse"><stop offset="0" stop-color="#ffca4f" stop-opacity="0"/><stop offset="1" stop-color="#f4901f"/></linearGradient><linearGradient id="linear-gradient-3" x1="21.462" y1="14" x2="21.462" y2="36.875" gradientUnits="userSpaceOnUse"><stop offset="0" stop-color="#eaecf7"/><stop offset="1" stop-color="#cdd3f1"/></linearGradient><linearGradient id="linear-gradient-4" x1="37.393" y1="40.156" x2="34.558" y2="45.944" xlink:href="#linear-gradient-3"/><linearGradient id="linear-gradient-5" x1="27.309" y1="40.186" x2="24.621" y2="45.967" xlink:href="#linear-gradient-3"/><linearGradient id="linear-gradient-6" x1="17.407" y1="40.141" x2="14.563" y2="45.922" xlink:href="#linear-gradient-3"/><linearGradient id="linear-gradient-7" x1="7.425" y1="40.119" x2="4.582" y2="45.869" xlink:href="#linear-gradient-3"/><linearGradient id="linear-gradient-8" x1="21.462" y1="29.5" x2="21.462" y2="39.446" gradientUnits="userSpaceOnUse"><stop offset="0" stop-color="#e2e5f4" stop-opacity="0"/><stop offset="1" stop-color="#9aa6e2"/></linearGradient></defs><title>Weather Graadient</title><g id="Rainy_Night" data-name="Rainy Night"><path class="cls-1" d="M42.357,18.72A9.232,9.232,0,0,1,36.9,2.036C36.666,2.021,36.434,2,36.2,2A11,11,0,1,0,46,17.971,9.206,9.206,0,0,1,42.357,18.72Z"/><path class="cls-2" d="M33.509,12.139c-2.5,2.156-4.941,4.275-7,6.066A10.993,10.993,0,0,0,46,17.971a9.238,9.238,0,0,1-12.491-5.832Z"/><path class="cls-3" d="M33.846,22.846c-.107,0-.21.011-.316.016a11.483,11.483,0,0,0-20.967-3.385A8.845,8.845,0,1,0,10.846,37h23a7.077,7.077,0,0,0,0-14.154Z"/><path class="cls-4" d="M35,46a1,1,0,0,1-.894-1.447l2-4a1,1,0,1,1,1.789.895l-2,4A1,1,0,0,1,35,46Z"/><path class="cls-5" d="M25,46a1,1,0,0,1-.894-1.447l2-4a1,1,0,0,1,1.789.895l-2,4A1,1,0,0,1,25,46Z"/><path class="cls-6" d="M15,46a1,1,0,0,1-.894-1.447l2-4a1,1,0,0,1,1.789.895l-2,4A1,1,0,0,1,15,46Z"/><path class="cls-7" d="M5,46a1,1,0,0,1-.894-1.447l2-4a1,1,0,1,1,1.789.895l-2,4A1,1,0,0,1,5,46Z"/><path class="cls-8" d="M2.084,27a8.788,8.788,0,0,0,8.762,10h23a7.067,7.067,0,0,0,6.44-10Z"/></g></svg>