<?xml version="1.0" encoding="UTF-8"?>
<svg id="Layer_2" xmlns="http://www.w3.org/2000/svg" xmlns:xlink="http://www.w3.org/1999/xlink" version="1.1" viewBox="0 0 48 48">
  <!-- Generator: Adobe Illustrator 29.0.1, SVG Export Plug-In . SVG Version: 2.1.0 Build 192)  -->
  <defs>
    <style>
      .st0 {
        fill: url(#linear-gradient2);
      }

      .st1 {
        fill: url(#linear-gradient1);
      }

      .st2 {
        fill: url(#linear-gradient3);
      }

      .st3 {
        fill: url(#linear-gradient18);
      }

      .st4 {
        fill: url(#linear-gradient13);
      }

      .st5 {
        fill: url(#linear-gradient12);
      }

      .st6 {
        fill: url(#linear-gradient15);
      }

      .st7 {
        fill: url(#linear-gradient16);
      }

      .st8 {
        fill: url(#linear-gradient17);
      }

      .st9 {
        fill: url(#linear-gradient14);
      }

      .st10 {
        fill: url(#linear-gradient19);
      }

      .st11 {
        fill: url(#linear-gradient20);
      }

      .st12 {
        fill: url(#linear-gradient);
      }

      .st13 {
        fill: url(#linear-gradient21);
      }

      .st13, .st14, .st15, .st16, .st17, .st18, .st19, .st20, .st21 {
        display: none;
      }

      .st14 {
        fill: url(#linear-gradient11);
      }

      .st15 {
        fill: url(#linear-gradient10);
      }

      .st16 {
        fill: url(#linear-gradient9);
      }

      .st17 {
        fill: url(#linear-gradient4);
      }

      .st18 {
        fill: url(#linear-gradient5);
      }

      .st19 {
        fill: url(#linear-gradient6);
      }

      .st20 {
        fill: url(#linear-gradient7);
      }

      .st21 {
        fill: url(#linear-gradient8);
      }
    </style>
    <linearGradient id="linear-gradient" x1="27" y1="5" x2="41.8" y2="24.8" gradientUnits="userSpaceOnUse">
      <stop offset="0" stop-color="#ffca4f"/>
      <stop offset="1" stop-color="#f7ae30"/>
    </linearGradient>
    <linearGradient id="linear-gradient1" x1="31.8" y1="15.1" x2="42.1" y2="25.2" gradientUnits="userSpaceOnUse">
      <stop offset="0" stop-color="#ffca4f" stop-opacity="0"/>
      <stop offset="1" stop-color="#f4901f"/>
    </linearGradient>
    <linearGradient id="linear-gradient2" x1="20.8" y1="13.3" x2="20.8" y2="35.5" gradientUnits="userSpaceOnUse">
      <stop offset="0" stop-color="#eaecf7"/>
      <stop offset="1" stop-color="#cdd3f1"/>
    </linearGradient>
    <linearGradient id="linear-gradient3" x1="20.9" y1="28.1" x2="20.9" y2="37.3" gradientUnits="userSpaceOnUse">
      <stop offset="0" stop-color="#e2e5f4" stop-opacity="0"/>
      <stop offset="1" stop-color="#9aa6e2"/>
    </linearGradient>
    <linearGradient id="linear-gradient4" x1="20.2" y1="38.1" x2="20.2" y2="45.9" xlink:href="#linear-gradient2"/>
    <linearGradient id="linear-gradient5" x1="8.6" y1="38.1" x2="8.6" y2="45.9" xlink:href="#linear-gradient2"/>
    <linearGradient id="linear-gradient6" x1="31.8" y1="38.1" x2="31.8" y2="45.9" xlink:href="#linear-gradient2"/>
    <linearGradient id="linear-gradient7" x1="8.6" y1="42" x2="8.6" y2="46.6" xlink:href="#linear-gradient3"/>
    <linearGradient id="linear-gradient8" x1="20.2" y1="42" x2="20.2" y2="46.7" xlink:href="#linear-gradient3"/>
    <linearGradient id="linear-gradient9" x1="31.8" y1="42" x2="31.8" y2="46.7" xlink:href="#linear-gradient3"/>
    <linearGradient id="linear-gradient10" x1="20.8" y1="16.3" x2="20.8" y2="33.2" xlink:href="#linear-gradient2"/>
    <linearGradient id="linear-gradient11" x1="20.8" y1="27.1" x2="20.8" y2="35.8" xlink:href="#linear-gradient3"/>
    <linearGradient id="linear-gradient12" x1="11.4" y1="36.8" x2="13.7" y2="39" xlink:href="#linear-gradient2"/>
    <linearGradient id="linear-gradient13" x1="12.6" y1="37.9" x2="13.9" y2="39.1" xlink:href="#linear-gradient3"/>
    <linearGradient id="linear-gradient14" x1="19.7" y1="36.8" x2="21.9" y2="39" xlink:href="#linear-gradient2"/>
    <linearGradient id="linear-gradient15" x1="20.9" y1="37.9" x2="22.2" y2="39.1" xlink:href="#linear-gradient3"/>
    <linearGradient id="linear-gradient16" x1="27.9" y1="36.8" x2="30.2" y2="39" xlink:href="#linear-gradient2"/>
    <linearGradient id="linear-gradient17" x1="29.1" y1="37.9" x2="30.4" y2="39.1" xlink:href="#linear-gradient3"/>
    <linearGradient id="linear-gradient18" x1="23.8" y1="43" x2="26.1" y2="45.2" xlink:href="#linear-gradient2"/>
    <linearGradient id="linear-gradient19" x1="25" y1="44.1" x2="26.3" y2="45.3" xlink:href="#linear-gradient3"/>
    <linearGradient id="linear-gradient20" x1="15.5" y1="43" x2="17.8" y2="45.2" xlink:href="#linear-gradient2"/>
    <linearGradient id="linear-gradient21" x1="16.7" y1="44.1" x2="18" y2="45.3" xlink:href="#linear-gradient3"/>
  </defs>
  <g>
    <path class="st12" d="M42.2,19.4c-5.3,0-9.6-4.3-9.6-9.6s1.6-6,3.9-7.7c-.2,0-.5,0-.7,0-6.3,0-11.4,5.1-11.4,11.4s5.1,11.4,11.4,11.4,8.3-2.6,10.2-6.3c-1.2.5-2.4.8-3.8.8Z"/>
    <path class="st1" d="M33.2,13.1c-2.5,1.9-5.1,3.8-7.5,5.6,1.9,3.7,5.7,6.2,10.1,6.2s8.3-2.6,10.2-6.3c-1.2.5-2.4.8-3.8.8-4.1,0-7.7-2.6-9-6.3Z"/>
    <path class="st0" d="M32.8,21.6c-.1,0-.2,0-.3,0-1.2-4.9-5.5-8.6-10.8-8.6s-7.5,2.1-9.5,5.3c-.5-.1-1.1-.2-1.7-.2-4.7,0-8.5,3.8-8.5,8.5s3.8,8.5,8.5,8.5h22.2c3.8,0,6.8-3.1,6.8-6.8s-3.1-6.8-6.8-6.8Z"/>
    <path class="st2" d="M2.1,28c.6,4.1,4.2,7.3,8.4,7.3h22.2c3.8,0,6.8-3.1,6.8-6.8s0-.3,0-.5H2.1Z"/>
    <path class="st17" d="M23.7,40c-.3-.5-.9-.6-1.4-.4l-1.1.6v-1.3c0-.6-.4-1-1-1s-1,.4-1,1v1.3l-1.1-.6c-.5-.3-1.1-.1-1.4.4-.3.5-.1,1.1.4,1.4l1.1.6-1.1.6c-.5.3-.6.9-.4,1.4.2.3.5.5.9.5s.3,0,.5-.1l1.1-.6v1.3c0,.6.4,1,1,1s1-.4,1-1v-1.3l1.1.6c.2,0,.3.1.5.1.3,0,.7-.2.9-.5.3-.5.1-1.1-.4-1.4l-1.1-.6,1.1-.6c.5-.3.6-.9.4-1.4Z"/>
    <path class="st18" d="M12.1,40c-.3-.5-.9-.6-1.4-.4l-1.1.6v-1.3c0-.6-.4-1-1-1s-1,.4-1,1v1.3l-1.1-.6c-.5-.3-1.1-.1-1.4.4-.3.5-.1,1.1.4,1.4l1.1.6-1.1.6c-.5.3-.6.9-.4,1.4.2.3.5.5.9.5s.3,0,.5-.1l1.1-.6v1.3c0,.6.4,1,1,1s1-.4,1-1v-1.3l1.1.6c.2,0,.3.1.5.1.3,0,.7-.2.9-.5.3-.5.1-1.1-.4-1.4l-1.1-.6,1.1-.6c.5-.3.6-.9.4-1.4Z"/>
    <path class="st19" d="M34.9,42.6l-1.1-.6,1.1-.6c.5-.3.6-.9.4-1.4-.3-.5-.9-.6-1.4-.4l-1.1.6v-1.3c0-.6-.4-1-1-1s-1,.4-1,1v1.3l-1.1-.6c-.5-.3-1.1-.1-1.4.4-.3.5-.1,1.1.4,1.4l1.1.6-1.1.6c-.5.3-.6.9-.4,1.4.2.3.5.5.9.5s.3,0,.5-.1l1.1-.6v1.3c0,.6.4,1,1,1s1-.4,1-1v-1.3l1.1.6c.2,0,.3.1.5.1.3,0,.7-.2.9-.5.3-.5.1-1.1-.4-1.4Z"/>
    <path class="st20" d="M11.7,42.6l-1.1-.6h-4l-1.1.6c-.5.3-.6.9-.4,1.4.2.3.5.5.9.5s.3,0,.5-.1l1.1-.6v1.3c0,.6.4,1,1,1s1-.4,1-1v-1.3l1.1.6c.2,0,.3.1.5.1.3,0,.7-.2.9-.5.3-.5.1-1.1-.4-1.4Z"/>
    <path class="st21" d="M23.3,42.6l-1.1-.6h-4l-1.1.6c-.5.3-.6.9-.4,1.4.2.3.5.5.9.5s.3,0,.5-.1l1.1-.6v1.3c0,.6.4,1,1,1s1-.4,1-1v-1.3l1.1.6c.2,0,.3.1.5.1.3,0,.7-.2.9-.5.3-.5.1-1.1-.4-1.4Z"/>
    <path class="st16" d="M34.9,42.6l-1.1-.6h-4l-1.1.6c-.5.3-.6.9-.4,1.4.2.3.5.5.9.5s.3,0,.5-.1l1.1-.6v1.3c0,.6.4,1,1,1s1-.4,1-1v-1.3l1.1.6c.2,0,.3.1.5.1.3,0,.7-.2.9-.5.3-.5.1-1.1-.4-1.4Z"/>
  </g>
  <g>
    <path class="st15" d="M30.4,22.8c0,0-.2,0-.2,0-.9-3.9-4.5-6.9-8.7-6.9s-6,1.7-7.6,4.3c-.4,0-.9-.1-1.3-.1-3.8,0-6.9,3.1-6.9,6.9s3.1,6.9,6.9,6.9h17.9c3,0,5.5-2.5,5.5-5.5s-2.5-5.5-5.5-5.5Z"/>
    <path class="st14" d="M5.7,26.9c0,3.8,3.1,6.9,6.9,6.9h17.9c3,0,5.5-2.5,5.5-5.5s0-.9-.2-1.4H5.7Z"/>
    <circle class="st5" cx="12.6" cy="37.9" r="1.4"/>
    <path class="st4" d="M11.6,38.9c.2.2.6.4,1,.4.8,0,1.4-.6,1.4-1.4s-.2-.7-.4-1l-1.9,1.9Z"/>
    <circle class="st9" cx="20.8" cy="37.9" r="1.4"/>
    <path class="st6" d="M19.8,38.9c.2.2.6.4,1,.4.8,0,1.4-.6,1.4-1.4s-.2-.7-.4-1l-1.9,1.9Z"/>
    <circle class="st7" cx="29.1" cy="37.9" r="1.4"/>
    <path class="st8" d="M28.1,38.9c.2.2.6.4,1,.4.8,0,1.4-.6,1.4-1.4s-.2-.7-.4-1l-1.9,1.9Z"/>
    <circle class="st3" cx="24.9" cy="44.1" r="1.4"/>
    <path class="st10" d="M24,45c.2.2.6.4,1,.4.8,0,1.4-.6,1.4-1.4s-.2-.7-.4-1l-1.9,1.9Z"/>
    <circle class="st11" cx="16.7" cy="44.1" r="1.4"/>
    <path class="st13" d="M15.7,45c.2.2.6.4,1,.4.8,0,1.4-.6,1.4-1.4s-.2-.7-.4-1l-1.9,1.9Z"/>
  </g>
</svg>