<?xml version="1.0" encoding="UTF-8"?>
<svg id="Layer_2" xmlns="http://www.w3.org/2000/svg" xmlns:xlink="http://www.w3.org/1999/xlink" version="1.1" viewBox="0 0 48 48">
  <!-- Generator: Adobe Illustrator 29.0.1, SVG Export Plug-In . SVG Version: 2.1.0 Build 192)  -->
  <defs>
    <style>
      .st0 {
        fill: url(#linear-gradient2);
      }

      .st1 {
        fill: url(#linear-gradient1);
      }

      .st2 {
        fill: url(#linear-gradient9);
      }

      .st3 {
        fill: url(#linear-gradient3);
      }

      .st4 {
        fill: url(#linear-gradient6);
      }

      .st5 {
        fill: url(#linear-gradient8);
      }

      .st6 {
        fill: url(#linear-gradient7);
      }

      .st7 {
        fill: url(#linear-gradient5);
      }

      .st8 {
        fill: url(#linear-gradient4);
      }

      .st9 {
        fill: url(#linear-gradient);
      }
    </style>
    <linearGradient id="linear-gradient" x1="27" y1="5" x2="41.8" y2="24.8" gradientUnits="userSpaceOnUse">
      <stop offset="0" stop-color="#ffca4f"/>
      <stop offset="1" stop-color="#f7ae30"/>
    </linearGradient>
    <linearGradient id="linear-gradient1" x1="31.8" y1="15.1" x2="42.1" y2="25.2" gradientUnits="userSpaceOnUse">
      <stop offset="0" stop-color="#ffca4f" stop-opacity="0"/>
      <stop offset="1" stop-color="#f4901f"/>
    </linearGradient>
    <linearGradient id="linear-gradient2" x1="20.8" y1="13.3" x2="20.8" y2="35.5" gradientUnits="userSpaceOnUse">
      <stop offset="0" stop-color="#eaecf7"/>
      <stop offset="1" stop-color="#cdd3f1"/>
    </linearGradient>
    <linearGradient id="linear-gradient3" x1="20.9" y1="28.1" x2="20.9" y2="37.3" gradientUnits="userSpaceOnUse">
      <stop offset="0" stop-color="#e2e5f4" stop-opacity="0"/>
      <stop offset="1" stop-color="#9aa6e2"/>
    </linearGradient>
    <linearGradient id="linear-gradient4" x1="20.2" y1="38.1" x2="20.2" y2="45.9" xlink:href="#linear-gradient2"/>
    <linearGradient id="linear-gradient5" x1="8.6" y1="38.1" x2="8.6" y2="45.9" xlink:href="#linear-gradient2"/>
    <linearGradient id="linear-gradient6" x1="31.8" y1="38.1" x2="31.8" y2="45.9" xlink:href="#linear-gradient2"/>
    <linearGradient id="linear-gradient7" x1="8.6" y1="42" x2="8.6" y2="46.6" xlink:href="#linear-gradient3"/>
    <linearGradient id="linear-gradient8" x1="20.2" y1="42" x2="20.2" y2="46.7" xlink:href="#linear-gradient3"/>
    <linearGradient id="linear-gradient9" x1="31.8" y1="42" x2="31.8" y2="46.7" xlink:href="#linear-gradient3"/>
  </defs>
  <path class="st9" d="M42.2,19.4c-5.3,0-9.6-4.3-9.6-9.6s1.6-6,3.9-7.7c-.2,0-.5,0-.7,0-6.3,0-11.4,5.1-11.4,11.4s5.1,11.4,11.4,11.4,8.3-2.6,10.2-6.3c-1.2.5-2.4.8-3.8.8Z"/>
  <path class="st1" d="M33.2,13.1c-2.5,1.9-5.1,3.8-7.5,5.6,1.9,3.7,5.7,6.2,10.1,6.2s8.3-2.6,10.2-6.3c-1.2.5-2.4.8-3.8.8-4.1,0-7.7-2.6-9-6.3Z"/>
  <path class="st0" d="M32.8,21.6c-.1,0-.2,0-.3,0-1.2-4.9-5.5-8.6-10.8-8.6s-7.5,2.1-9.5,5.3c-.5-.1-1.1-.2-1.7-.2-4.7,0-8.5,3.8-8.5,8.5s3.8,8.5,8.5,8.5h22.2c3.8,0,6.8-3.1,6.8-6.8s-3.1-6.8-6.8-6.8Z"/>
  <path class="st3" d="M2.1,28c.6,4.1,4.2,7.3,8.4,7.3h22.2c3.8,0,6.8-3.1,6.8-6.8s0-.3,0-.5H2.1Z"/>
  <path class="st8" d="M23.7,40c-.3-.5-.9-.6-1.4-.4l-1.1.6v-1.3c0-.6-.4-1-1-1s-1,.4-1,1v1.3l-1.1-.6c-.5-.3-1.1-.1-1.4.4-.3.5-.1,1.1.4,1.4l1.1.6-1.1.6c-.5.3-.6.9-.4,1.4.2.3.5.5.9.5s.3,0,.5-.1l1.1-.6v1.3c0,.6.4,1,1,1s1-.4,1-1v-1.3l1.1.6c.2,0,.3.1.5.1.3,0,.7-.2.9-.5.3-.5.1-1.1-.4-1.4l-1.1-.6,1.1-.6c.5-.3.6-.9.4-1.4Z"/>
  <path class="st7" d="M12.1,40c-.3-.5-.9-.6-1.4-.4l-1.1.6v-1.3c0-.6-.4-1-1-1s-1,.4-1,1v1.3l-1.1-.6c-.5-.3-1.1-.1-1.4.4-.3.5-.1,1.1.4,1.4l1.1.6-1.1.6c-.5.3-.6.9-.4,1.4.2.3.5.5.9.5s.3,0,.5-.1l1.1-.6v1.3c0,.6.4,1,1,1s1-.4,1-1v-1.3l1.1.6c.2,0,.3.1.5.1.3,0,.7-.2.9-.5.3-.5.1-1.1-.4-1.4l-1.1-.6,1.1-.6c.5-.3.6-.9.4-1.4Z"/>
  <path class="st4" d="M34.9,42.6l-1.1-.6,1.1-.6c.5-.3.6-.9.4-1.4-.3-.5-.9-.6-1.4-.4l-1.1.6v-1.3c0-.6-.4-1-1-1s-1,.4-1,1v1.3l-1.1-.6c-.5-.3-1.1-.1-1.4.4-.3.5-.1,1.1.4,1.4l1.1.6-1.1.6c-.5.3-.6.9-.4,1.4.2.3.5.5.9.5s.3,0,.5-.1l1.1-.6v1.3c0,.6.4,1,1,1s1-.4,1-1v-1.3l1.1.6c.2,0,.3.1.5.1.3,0,.7-.2.9-.5.3-.5.1-1.1-.4-1.4Z"/>
  <path class="st6" d="M11.7,42.6l-1.1-.6h-4l-1.1.6c-.5.3-.6.9-.4,1.4.2.3.5.5.9.5s.3,0,.5-.1l1.1-.6v1.3c0,.6.4,1,1,1s1-.4,1-1v-1.3l1.1.6c.2,0,.3.1.5.1.3,0,.7-.2.9-.5.3-.5.1-1.1-.4-1.4Z"/>
  <path class="st5" d="M23.3,42.6l-1.1-.6h-4l-1.1.6c-.5.3-.6.9-.4,1.4.2.3.5.5.9.5s.3,0,.5-.1l1.1-.6v1.3c0,.6.4,1,1,1s1-.4,1-1v-1.3l1.1.6c.2,0,.3.1.5.1.3,0,.7-.2.9-.5.3-.5.1-1.1-.4-1.4Z"/>
  <path class="st2" d="M34.9,42.6l-1.1-.6h-4l-1.1.6c-.5.3-.6.9-.4,1.4.2.3.5.5.9.5s.3,0,.5-.1l1.1-.6v1.3c0,.6.4,1,1,1s1-.4,1-1v-1.3l1.1.6c.2,0,.3.1.5.1.3,0,.7-.2.9-.5.3-.5.1-1.1-.4-1.4Z"/>
</svg>