<svg xmlns="http://www.w3.org/2000/svg" xmlns:xlink="http://www.w3.org/1999/xlink" viewBox="0 0 48 48"><defs><style>.cls-1{fill:url(#linear-gradient);}.cls-2{fill:url(#linear-gradient-2);}.cls-3{fill:url(#linear-gradient-3);}.cls-4{fill:url(#linear-gradient-4);}</style><linearGradient id="linear-gradient" x1="0.708" y1="0.543" x2="47.791" y2="47.959" gradientUnits="userSpaceOnUse"><stop offset="0" stop-color="#9aa6e2"/><stop offset="1" stop-color="#7283d6"/></linearGradient><linearGradient id="linear-gradient-2" x1="25.126" y1="23.223" x2="46.439" y2="42.285" gradientUnits="userSpaceOnUse"><stop offset="0" stop-color="#7283d6" stop-opacity="0"/><stop offset="1" stop-color="#4d62cb"/></linearGradient><linearGradient id="linear-gradient-3" x1="16.997" y1="16.037" x2="30.974" y2="31.931" gradientUnits="userSpaceOnUse"><stop offset="0" stop-color="#eaecf7"/><stop offset="1" stop-color="#cdd3f1"/></linearGradient><linearGradient id="linear-gradient-4" x1="24.25" y1="23.892" x2="31.374" y2="31.826" gradientUnits="userSpaceOnUse"><stop offset="0" stop-color="#e2e5f4" stop-opacity="0"/><stop offset="1" stop-color="#9aa6e2"/></linearGradient></defs><title>Weather Graadient</title><g id="Snow"><path class="cls-1" d="M43.562,28.7l-6.429,1.723L26,24l11.132-6.427L43.562,19.3a1,1,0,0,0,.518-1.932l-4.5-1.205,3.971-2.293a1,1,0,0,0-1-1.732l-3.972,2.293,1.205-4.5a1,1,0,1,0-1.932-.518l-1.723,6.43L25,22.268V9.414l4.707-4.707a1,1,0,0,0-1.414-1.414L25,6.586V2a1,1,0,0,0-2,0V6.586L19.707,3.293a1,1,0,0,0-1.414,1.414L23,9.414V22.268L11.868,15.841l-1.723-6.43a1,1,0,1,0-1.932.518l1.205,4.5L5.447,12.134a1,1,0,0,0-1,1.732l3.971,2.293-4.5,1.205A1,1,0,1,0,4.438,19.3l6.429-1.723L22,24,10.868,30.427,4.438,28.7a1,1,0,0,0-.518,1.932l4.5,1.205L4.447,34.134a1,1,0,0,0,1,1.732l3.972-2.293-1.205,4.5a1,1,0,1,0,1.932.518l1.723-6.43L23,25.732V38.586l-4.707,4.707a1,1,0,0,0,1.414,1.414L23,41.414V46a1,1,0,0,0,2,0V41.414l3.293,3.293a1,1,0,0,0,1.414-1.414L25,38.586V25.732l11.132,6.427,1.723,6.43a1,1,0,1,0,1.932-.518l-1.205-4.5,3.972,2.293a1,1,0,0,0,1-1.732l-3.971-2.293,4.5-1.205a1,1,0,0,0-.518-1.932Z"/><path class="cls-2" d="M43.562,19.3a1,1,0,0,0,.518-1.932l-4.5-1.205,3.971-2.293a1,1,0,0,0-1-1.732l-3.972,2.293,1.205-4.5a1,1,0,1,0-1.932-.518l-1.723,6.43L25,22.268V20.894l-7.919,8.256L23,25.732V38.586l-4.707,4.707a1,1,0,0,0,1.414,1.414L23,41.414V46a1,1,0,0,0,2,0V41.414l3.293,3.293a1,1,0,0,0,1.414-1.414L25,38.586V25.732l11.132,6.427,1.723,6.43a1,1,0,1,0,1.932-.518l-1.205-4.5,3.972,2.293a1,1,0,0,0,1-1.732l-3.971-2.293,4.5-1.205a1,1,0,0,0-.518-1.932l-6.429,1.723L26,24l11.132-6.427Z"/><path class="cls-3" d="M23.5,14.825l-7.2,4.155a1,1,0,0,0-.5.866v8.309a1,1,0,0,0,.5.866l7.2,4.155a1,1,0,0,0,1,0l7.2-4.155a1,1,0,0,0,.5-.866V19.845a1,1,0,0,0-.5-.866l-7.2-4.155A1,1,0,0,0,23.5,14.825Z"/><path class="cls-4" d="M17.607,29.773l5.893,3.4a1,1,0,0,0,1,0l7.2-4.155a1,1,0,0,0,.5-.866V19.845a1,1,0,0,0-.5-.866l-1.932-1.116Z"/></g></svg>