<?xml version="1.0" encoding="UTF-8"?>
<svg id="Layer_2" xmlns="http://www.w3.org/2000/svg" xmlns:xlink="http://www.w3.org/1999/xlink" version="1.1" viewBox="0 0 48 48">
  <!-- Generator: Adobe Illustrator 29.0.1, SVG Export Plug-In . SVG Version: 2.1.0 Build 192)  -->
  <defs>
    <style>
      .st0 {
        fill: url(#linear-gradient2);
      }

      .st1 {
        fill: url(#linear-gradient1);
      }

      .st2 {
        fill: url(#linear-gradient3);
      }

      .st3 {
        fill: url(#linear-gradient4);
      }

      .st4 {
        fill: url(#linear-gradient);
      }

      .st5 {
        fill: #ffe000;
      }
    </style>
    <linearGradient id="linear-gradient" x1="26.3" y1="2.7" x2="39.6" y2="24.2" gradientUnits="userSpaceOnUse">
      <stop offset="0" stop-color="#ffca4f"/>
      <stop offset="1" stop-color="#f7ae30"/>
    </linearGradient>
    <linearGradient id="linear-gradient1" x1="33.2" y1="16.8" x2="42.9" y2="25.4" gradientUnits="userSpaceOnUse">
      <stop offset="0" stop-color="#ffca4f" stop-opacity="0"/>
      <stop offset="1" stop-color="#f4901f"/>
    </linearGradient>
    <linearGradient id="linear-gradient2" x1="20.8" y1="13.2" x2="20.8" y2="35.4" gradientUnits="userSpaceOnUse">
      <stop offset="0" stop-color="#eaecf7"/>
      <stop offset="1" stop-color="#cdd3f1"/>
    </linearGradient>
    <linearGradient id="linear-gradient3" x1="20.9" y1="28.1" x2="20.9" y2="37.1" gradientUnits="userSpaceOnUse">
      <stop offset="0" stop-color="#e2e5f4" stop-opacity="0"/>
      <stop offset="1" stop-color="#9aa6e2"/>
    </linearGradient>
    <linearGradient id="linear-gradient4" x1="19.4" y1="35.6" x2="19.4" y2="45.7" gradientUnits="userSpaceOnUse">
      <stop offset="0" stop-color="#ff4343" stop-opacity="0"/>
      <stop offset="1" stop-color="#af0000"/>
    </linearGradient>
  </defs>
  <path class="st4" d="M42.2,19.4c-5.3,0-9.6-4.3-9.6-9.6s1.6-6,3.9-7.7c-.2,0-.5,0-.7,0-6.3,0-11.4,5.1-11.4,11.4s5.1,11.4,11.4,11.4,8.3-2.6,10.2-6.3c-1.2.5-2.4.8-3.8.8Z"/>
  <path class="st1" d="M34.1,15l-7.3,5.5c2.1,2.6,5.3,4.3,9,4.3s8.3-2.6,10.2-6.3c-1.2.5-2.4.8-3.8.8-3.4,0-6.3-1.7-8.1-4.4Z"/>
  <path class="st0" d="M32.8,21.6c-.1,0-.2,0-.3,0-1.2-4.9-5.5-8.6-10.8-8.6s-7.5,2.1-9.5,5.3c-.5-.1-1.1-.2-1.7-.2-4.7,0-8.5,3.8-8.5,8.5s3.8,8.5,8.5,8.5h22.2c3.8,0,6.8-3.1,6.8-6.8s-3.1-6.8-6.8-6.8Z"/>
  <path class="st2" d="M2.1,28c.6,4.1,4.2,7.3,8.4,7.3h22.2c3.8,0,6.8-3.1,6.8-6.8s0-.3,0-.5H2.1Z"/>
  <polygon class="st5" points="22.5 24 20.5 33.3 26 33.3 17.5 46 19.5 37 14 37 22.5 24"/>
  <polygon class="st3" points="24.9 35 15.3 35 14 37 19.5 37 17.5 46 24.9 35"/>
</svg>