<?xml version="1.0" encoding="UTF-8"?>
<svg id="Layer_1" xmlns="http://www.w3.org/2000/svg" xmlns:xlink="http://www.w3.org/1999/xlink" version="1.1" viewBox="0 0 48 48">
  <!-- Generator: Adobe Illustrator 29.0.1, SVG Export Plug-In . SVG Version: 2.1.0 Build 192)  -->
  <defs>
    <style>
      .st0 {
        fill: url(#linear-gradient2);
      }

      .st1 {
        fill: url(#linear-gradient1);
      }

      .st2 {
        fill: url(#linear-gradient3);
      }

      .st3 {
        fill: url(#linear-gradient6);
      }

      .st4 {
        fill: url(#linear-gradient8);
      }

      .st5 {
        fill: url(#linear-gradient7);
      }

      .st6 {
        fill: url(#linear-gradient5);
      }

      .st7 {
        fill: url(#linear-gradient4);
      }

      .st8 {
        fill: url(#linear-gradient);
      }
    </style>
    <linearGradient id="linear-gradient" x1="2" y1="29.9" x2="53.5" y2="29.9" gradientTransform="translate(0 47.9) scale(1 -1)" gradientUnits="userSpaceOnUse">
      <stop offset="0" stop-color="#cdd3f1"/>
      <stop offset="1" stop-color="#eaecf7"/>
    </linearGradient>
    <linearGradient id="linear-gradient1" x1="2" y1="35.9" x2="45.3" y2="35.9" gradientTransform="translate(0 47.9) scale(1 -1)" gradientUnits="userSpaceOnUse">
      <stop offset="0" stop-color="#cdd3f1"/>
      <stop offset="1" stop-color="#eaecf7"/>
    </linearGradient>
    <linearGradient id="linear-gradient2" x1="2" y1="11.9" x2="47.8" y2="11.9" gradientTransform="translate(0 47.9) scale(1 -1)" gradientUnits="userSpaceOnUse">
      <stop offset="0" stop-color="#cdd3f1"/>
      <stop offset="1" stop-color="#eaecf7"/>
    </linearGradient>
    <linearGradient id="linear-gradient3" x1="1.3" y1="16.9" x2="15.2" y2="16.9" gradientTransform="translate(0 47.9) scale(1 -1)" gradientUnits="userSpaceOnUse">
      <stop offset="0" stop-color="#9aa6e2"/>
      <stop offset="1" stop-color="#e2e5f4" stop-opacity="0"/>
    </linearGradient>
    <linearGradient id="linear-gradient4" x1="1.3" y1="22.9" x2="13.6" y2="22.9" gradientTransform="translate(0 47.9) scale(1 -1)" gradientUnits="userSpaceOnUse">
      <stop offset="0" stop-color="#9aa6e2"/>
      <stop offset="1" stop-color="#e2e5f4" stop-opacity="0"/>
    </linearGradient>
    <linearGradient id="linear-gradient5" x1="1.5" y1="30.9" x2="13.6" y2="30.9" gradientTransform="translate(0 47.9) scale(1 -1)" gradientUnits="userSpaceOnUse">
      <stop offset="0" stop-color="#9aa6e2"/>
      <stop offset="1" stop-color="#e2e5f4" stop-opacity="0"/>
    </linearGradient>
    <linearGradient id="linear-gradient6" x1="36.3" y1="32.9" x2="36.3" y2="39.1" gradientUnits="userSpaceOnUse">
      <stop offset="0" stop-color="#eaecf7"/>
      <stop offset="1" stop-color="#cdd3f1"/>
    </linearGradient>
    <linearGradient id="linear-gradient7" x1="38.4" y1="14.1" x2="38.4" y2="21.9" xlink:href="#linear-gradient6"/>
    <linearGradient id="linear-gradient8" x1="20.9" y1="8.9" x2="20.9" y2="15.1" xlink:href="#linear-gradient6"/>
  </defs>
  <g id="Wind">
    <path class="st8" d="M39,10c-4.4,0-8,3.6-8,8,0,.6.4,1,1,1s1-.4,1-1c0-3.3,2.7-6,6-6s6,2.7,6,6-2.7,6-6,6H2c-.6,0-1,.4-1,1s.4,1,1,1h37c4.4,0,8-3.6,8-8s-3.6-8-8-8Z"/>
    <path class="st1" d="M2,18h19c3.3,0,6-2.7,6-6s-2.7-6-6-6-6,2.7-6,6,.4,1,1,1,1-.4,1-1c0-2.2,1.8-4,4-4s4,1.8,4,4-1.8,4-4,4H2c-.6,0-1,.4-1,1s.4,1,1,1Z"/>
    <path class="st0" d="M36,30H2c-.6,0-1,.4-1,1s.4,1,1,1h34c2.2,0,4,1.8,4,4s-1.8,4-4,4-4-1.8-4-4-.4-1-1-1-1,.4-1,1c0,3.3,2.7,6,6,6s6-2.7,6-6-2.7-6-6-6Z"/>
    <path class="st2" d="M14.1,30H2c-.6,0-1,.4-1,1s.4,1,1,1h12.1v-2Z"/>
    <path class="st7" d="M14.1,24H2c-.6,0-1,.4-1,1s.4,1,1,1h12.1v-2Z"/>
    <path class="st6" d="M14.1,16H2c-.6,0-1,.4-1,1s.4,1,1,1h12.1v-2Z"/>
  </g>
  <path class="st3" d="M39.1,34.4c-.2-.4-.7-.5-1.1-.3l-.9.5v-1c0-.4-.4-.8-.8-.8s-.8.4-.8.8v1l-.9-.5c-.4-.2-.9,0-1.1.3-.2.4,0,.9.3,1.1l.9.5-.9.5c-.4.2-.5.7-.3,1.1.1.3.4.4.7.4s.3,0,.4-.1l.9-.5v1c0,.4.4.8.8.8s.8-.4.8-.8v-1l.9.5c.1,0,.3.1.4.1.3,0,.5-.1.7-.4.2-.4,0-.9-.3-1.1l-.9-.5.9-.5c.4-.2.5-.7.3-1.1Z"/>
  <path class="st5" d="M41.9,16c-.3-.5-.9-.6-1.4-.4l-1.1.6v-1.3c0-.6-.4-1-1-1s-1,.4-1,1v1.3l-1.1-.6c-.5-.3-1.1-.1-1.4.4-.3.5-.1,1.1.4,1.4l1.1.6-1.1.6c-.5.3-.6.9-.4,1.4.2.3.5.5.9.5s.3,0,.5-.1l1.1-.6v1.3c0,.6.4,1,1,1s1-.4,1-1v-1.3l1.1.6c.2,0,.3.1.5.1.3,0,.7-.2.9-.5.3-.5.1-1.1-.4-1.4l-1.1-.6,1.1-.6c.5-.3.6-.9.4-1.4Z"/>
  <path class="st4" d="M23.6,10.4c-.2-.4-.7-.5-1.1-.3l-.9.5v-1c0-.4-.4-.8-.8-.8s-.8.4-.8.8v1l-.9-.5c-.4-.2-.9,0-1.1.3-.2.4,0,.9.3,1.1l.9.5-.9.5c-.4.2-.5.7-.3,1.1.1.3.4.4.7.4s.3,0,.4-.1l.9-.5v1c0,.4.4.8.8.8s.8-.4.8-.8v-1l.9.5c.1,0,.3.1.4.1.3,0,.5-.1.7-.4.2-.4,0-.9-.3-1.1l-.9-.5.9-.5c.4-.2.5-.7.3-1.1Z"/>
</svg>