<?xml version="1.0" encoding="UTF-8"?>
<svg id="Layer_1" xmlns="http://www.w3.org/2000/svg" xmlns:xlink="http://www.w3.org/1999/xlink" version="1.1" viewBox="0 0 48 48">
  <!-- Generator: Adobe Illustrator 29.0.1, SVG Export Plug-In . SVG Version: 2.1.0 Build 192)  -->
  <defs>
    <style>
      .st0 {
        fill: url(#linear-gradient2);
      }

      .st1 {
        fill: url(#linear-gradient1);
      }

      .st2 {
        fill: url(#linear-gradient3);
      }

      .st3 {
        fill: url(#linear-gradient6);
      }

      .st4 {
        fill: url(#linear-gradient5);
      }

      .st5 {
        fill: url(#linear-gradient4);
      }

      .st6 {
        fill: url(#linear-gradient);
      }

      .st7 {
        fill: #ff0;
      }
    </style>
    <linearGradient id="linear-gradient" x1="24" y1="45.2" x2="24" y2="20.7" gradientTransform="translate(0 47.9) scale(1 -1)" gradientUnits="userSpaceOnUse">
      <stop offset="0" stop-color="#eaecf7"/>
      <stop offset="1" stop-color="#cdd3f1"/>
    </linearGradient>
    <linearGradient id="linear-gradient1" x1="24" y1="29.6" x2="24" y2="16.9" gradientTransform="translate(0 47.9) scale(1 -1)" gradientUnits="userSpaceOnUse">
      <stop offset="0" stop-color="#e2e5f4" stop-opacity="0"/>
      <stop offset="1" stop-color="#9aa6e2"/>
    </linearGradient>
    <linearGradient id="linear-gradient2" x1="24.8" y1="12.4" x2="24.8" y2="2.1" gradientTransform="translate(0 47.9) scale(1 -1)" gradientUnits="userSpaceOnUse">
      <stop offset="0" stop-color="#ff4343" stop-opacity="0"/>
      <stop offset="1" stop-color="#af0000"/>
    </linearGradient>
    <linearGradient id="linear-gradient3" x1="15.4" y1="9.7" x2="12.5" y2="4" gradientTransform="translate(0 47.9) scale(1 -1)" gradientUnits="userSpaceOnUse">
      <stop offset="0" stop-color="#eaecf7"/>
      <stop offset="1" stop-color="#cdd3f1"/>
    </linearGradient>
    <linearGradient id="linear-gradient4" x1="8.4" y1="13.6" x2="5.7" y2="8.2" gradientTransform="translate(0 47.9) scale(1 -1)" gradientUnits="userSpaceOnUse">
      <stop offset="0" stop-color="#eaecf7"/>
      <stop offset="1" stop-color="#cdd3f1"/>
    </linearGradient>
    <linearGradient id="linear-gradient5" x1="35.4" y1="9.7" x2="32.6" y2="4.1" gradientTransform="translate(0 47.9) scale(1 -1)" gradientUnits="userSpaceOnUse">
      <stop offset="0" stop-color="#eaecf7"/>
      <stop offset="1" stop-color="#cdd3f1"/>
    </linearGradient>
    <linearGradient id="linear-gradient6" x1="42.3" y1="13.5" x2="39.6" y2="8.1" gradientTransform="translate(0 47.9) scale(1 -1)" gradientUnits="userSpaceOnUse">
      <stop offset="0" stop-color="#eaecf7"/>
      <stop offset="1" stop-color="#cdd3f1"/>
    </linearGradient>
  </defs>
  <g id="Thunderstorm">
    <path class="st6" d="M38,12c-.1,0-.2,0-.4,0-1.6-7-8.6-11.3-15.6-9.7-3.4.8-6.3,2.9-8.1,5.8-5.4-1.1-10.7,2.4-11.8,7.9-1.1,5.4,2.4,10.7,7.9,11.8.6.1,1.3.2,2,.2h26c4.4,0,8-3.6,8-8s-3.6-8-8-8Z"/>
    <path class="st1" d="M2,18c0,5.5,4.5,10,10,10h26c4.4,0,8-3.5,8-7.9,0-.7,0-1.4-.3-2.1H2Z"/>
    <polygon class="st7" points="27.3 20 24.7 31 32 31 20.7 46 23.3 35 16 35 27.3 20"/>
    <polygon class="st0" points="23.3 35 20.7 46 29 35 23.3 35"/>
    <path class="st2" d="M13,44c-.6,0-1-.4-1-1,0-.2,0-.3.1-.4l2-4c.2-.5.8-.7,1.3-.4.5.2.7.8.4,1.3l-2,4c-.2.3-.5.6-.9.6Z"/>
    <path class="st5" d="M6,40c-.6,0-1-.4-1-1,0-.2,0-.3.1-.4l2-4c.2-.5.8-.7,1.3-.4.5.2.7.8.4,1.3h0l-2,4c-.2.3-.5.6-.9.6Z"/>
    <path class="st4" d="M33,44c-.6,0-1-.4-1-1,0-.2,0-.3.1-.4l2-4c.2-.5.8-.7,1.3-.4.5.2.7.8.4,1.3l-2,4c-.2.3-.5.6-.9.6Z"/>
    <path class="st3" d="M40,40c-.6,0-1-.4-1-1,0-.2,0-.3.1-.4l2-4c.2-.5.8-.7,1.3-.4.5.2.7.8.4,1.3l-2,4c-.2.3-.5.6-.9.6Z"/>
  </g>
</svg>